<?xml version="1.0" encoding="utf-8"?>
<!-- Generator: Adobe Illustrator 16.0.0, SVG Export Plug-In . SVG Version: 6.00 Build 0)  -->
<!DOCTYPE svg PUBLIC "-//W3C//DTD SVG 1.1//EN" "http://www.w3.org/Graphics/SVG/1.1/DTD/svg11.dtd">
<svg version="1.1"
	 id="svg4081" xmlns:dc="http://purl.org/dc/elements/1.1/" xmlns:cc="http://creativecommons.org/ns#" xmlns:rdf="http://www.w3.org/1999/02/22-rdf-syntax-ns#" xmlns:svg="http://www.w3.org/2000/svg" xmlns:sodipodi="http://sodipodi.sourceforge.net/DTD/sodipodi-0.dtd" xmlns:inkscape="http://www.inkscape.org/namespaces/inkscape" sodipodi:docname="location_icon.svg" inkscape:version="0.48.3.1 r9886"
	 xmlns="http://www.w3.org/2000/svg" xmlns:xlink="http://www.w3.org/1999/xlink" x="0px" y="0px" width="771.129px"
	 height="701.829px" viewBox="0 0 771.129 701.829" enable-background="new 0 0 771.129 701.829" xml:space="preserve">
<filter  width="1.0797721" height="1.2420747" id="filter4037" y="-0.12103733" x="-0.039886054" inkscape:collect="always" color-interpolation-filters="sRGB">
	<feGaussianBlur  stdDeviation="11.868751" id="feGaussianBlur4039" inkscape:collect="always"></feGaussianBlur>
</filter>
<sodipodi:namedview  fit-margin-left="0" fit-margin-top="0" showgrid="true" inkscape:cy="395.29322" inkscape:cx="528.28719" inkscape:zoom="0.7" borderopacity="1.0" bordercolor="#666666" pagecolor="#ffffff" id="base" inkscape:window-maximized="1" inkscape:window-y="204" inkscape:window-x="1985" inkscape:window-height="876" inkscape:window-width="1535" fit-margin-bottom="0" fit-margin-right="0" inkscape:current-layer="layer1" inkscape:document-units="px" inkscape:pageshadow="2" inkscape:pageopacity="0.0">
	<inkscape:grid  type="xygrid" originy="-291.93894px" originx="-68.720988px" id="grid4120"></inkscape:grid>
</sodipodi:namedview>
<g id="path3969" sodipodi:nodetypes="ccccccccc" inkscape:connector-curvature="0" filter="url(#filter4037)">
	<path d="M101.139,449.274c-20.785,77.131-51.798,144.494-72.654,221.605c2.102,4.674,8.867,1.049,12.719,2.188
		c233.254-0.084,466.559,0.166,699.781-0.125c4.297-2.586-1.121-8.656-1.008-12.492c-20.238-74.148-48.451-142.535-68.697-216.682
		c-196.021,0-373.713,4.037-569.734,4.037l-0.267,0.963L101.139,449.274z"/>
</g>
<path id="rect3020" sodipodi:nodetypes="csssscc" inkscape:connector-curvature="0" fill="#FFFFFF" d="M677.727,439.991
	l62.932,230.637c0.064,0.236-0.236,0.441-0.529,0.441H31.189c-0.294,0-0.592-0.205-0.53-0.441l62.067-230.637H677.727z"/>
<path id="path3861" sodipodi:nodetypes="csssscc" inkscape:connector-curvature="0" fill="none" d="M677.727,439.991l62.932,230.637
	c0.064,0.236-0.236,0.441-0.529,0.441H31.189c-0.294,0-0.592-0.205-0.53-0.441l62.067-230.637H677.727z"/>
<path id="path4041" sodipodi:nodetypes="csssscc" inkscape:connector-curvature="0" opacity="0.8" fill="none" stroke="#000000" stroke-width="10" enable-background="new    " d="
	M677.727,439.991l62.932,230.637c0.064,0.236-0.236,0.441-0.529,0.441H31.189c-0.294,0-0.592-0.205-0.53-0.441l62.067-230.637
	H677.727z"/>
<path id="path4043" inkscape:connector-curvature="0" fill="#E52626" stroke="#000000" stroke-width="10.3971" d="M383.364,5.191
	c-99.484,0-179.812,80.41-179.812,179.594c0,31.187,7.969,60.528,21.938,86.094l157.875,264.313l157.875-264.313
	c13.969-25.566,21.938-54.907,21.938-86.094C563.176,85.602,482.848,5.191,383.364,5.191L383.364,5.191z M381.364,109.566
	c0.667-0.017,1.329,0,2,0c42.975,0,77.812,34.838,77.812,77.812c0,42.975-34.838,77.812-77.812,77.812s-77.812-34.837-77.812-77.812
	C305.551,145.076,339.317,110.632,381.364,109.566L381.364,109.566z"/>
</svg>
